2016-10-27 19:55:01
running
2016-10-27 19:55:25
{'/Volumes/G-SPEED Q/Titan-HD/HM/IncomingQT/A2016_007_002_006': ['01962001.MOV', '01962002.MOV', '01962003.MOV', '01962004.MOV']}
ffmpeg version 3.1.1 Copyright (c) 2000-2016 the FFmpeg developers
  built with Apple LLVM version 7.3.0 (clang-703.0.31)
  configuration: --prefix=/usr/local/Cellar/ffmpeg/3.1.1 --enable-shared --enable-pthreads --enable-gpl --enable-version3 --enable-hardcoded-tables --enable-avresample --cc=clang --host-cflags= --host-ldflags= --enable-opencl --enable-libx264 --enable-libmp3lame --enable-libxvid --enable-libfreetype --enable-libvorbis --enable-libvpx --enable-libass --enable-ffplay --enable-libfdk-aac --enable-libopus --enable-libx265 --disable-lzma --enable-nonfree --enable-vda
  libavutil      55. 28.100 / 55. 28.100
  libavcodec     57. 48.101 / 57. 48.101
  libavformat    57. 41.100 / 57. 41.100
  libavdevice    57.  0.101 / 57.  0.101
  libavfilter     6. 47.100 /  6. 47.100
  libavresample   3.  0.  0 /  3.  0.  0
  libswscale      4.  1.100 /  4.  1.100
  libswresample   2.  1.100 /  2.  1.100
  libpostproc    54.  0.100 / 54.  0.100
[concat @ 0x7ff5f0808800] Could not find codec parameters for stream 3 (Unknown: none): unknown codec
Consider increasing the value for the 'analyzeduration' and 'probesize' options
Guessed Channel Layout for Input Stream #0.1 : mono
Guessed Channel Layout for Input Stream #0.2 : mono
Input #0, concat, from 'concat.txt':
  Duration: N/A, start: 0.000000, bitrate: 52303 kb/s
    Stream #0:0(eng): Video: mpeg2video (4:2:2) (xd5b / 0x62356478), yuv422p(tv, bt709), 1920x1080 [SAR 1:1 DAR 16:9], 49999 kb/s, 29.97 fps, 29.97 tbr, 2997 tbn, 2997 tbc
    Metadata:
      creation_time   : 2008-06-06 20:25:39
      encoder         : 1080i5994 50 Mbit 4:2:2 LG
    Stream #0:1(eng): Audio: pcm_s24be (lpcm / 0x6D63706C), 48000 Hz, 1 channels, s32 (24 bit), 1152 kb/s
    Metadata:
      creation_time   : 2008-06-06 20:25:39
    Stream #0:2(eng): Audio: pcm_s24be (lpcm / 0x6D63706C), 48000 Hz, 1 channels, s32 (24 bit), 1152 kb/s
    Metadata:
      creation_time   : 2008-06-06 20:25:39
    Stream #0:3: Unknown: none
[mov @ 0x7ff5f183c800] Using AVStream.codec to pass codec parameters to muxers is deprecated, use AVStream.codecpar instead.
    Last message repeated 2 times
Output #0, mov, to 'concat.mov':
  Metadata:
    timecode        : 06:00:00:00
    encoder         : Lavf57.41.100
    Stream #0:0(eng): Video: mpeg2video (xd5b / 0x62356478), yuv422p(tv, bt709), 1920x1080 [SAR 1:1 DAR 16:9], q=2-31, 49999 kb/s, 0.03 fps, 29.97 tbr, 11988 tbn, 2997 tbc
    Metadata:
      creation_time   : 2008-06-06 20:25:39
      encoder         : 1080i5994 50 Mbit 4:2:2 LG
    Stream #0:1(eng): Audio: pcm_s24be (in24 / 0x34326E69), 48000 Hz, mono (24 bit), 1152 kb/s
    Metadata:
      creation_time   : 2008-06-06 20:25:39
    Stream #0:2(eng): Audio: pcm_s24be (in24 / 0x34326E69), 48000 Hz, mono (24 bit), 1152 kb/s
    Metadata:
      creation_time   : 2008-06-06 20:25:39
Stream mapping:
  Stream #0:0 -> #0:0 (copy)
  Stream #0:1 -> #0:1 (copy)
  Stream #0:2 -> #0:2 (copy)
Press [q] to stop, [?] for help
frame=  570 fps=0.0 q=-1.0 size=  119883kB time=00:00:19.01 bitrate=51636.9kbits/s speed=34.2x    frame= 1155 fps=1093 q=-1.0 size=  243221kB time=00:00:38.47 bitrate=51790.2kbits/s speed=36.4x    frame= 1635 fps=1049 q=-1.0 size=  348177kB time=00:00:54.55 bitrate=52282.9kbits/s speed=  35x    frame= 2145 fps=1041 q=-1.0 size=  454912kB time=00:01:11.57 bitrate=52068.7kbits/s speed=34.7x    frame= 2670 fps=1042 q=-1.0 size=  566758kB time=00:01:29.08 bitrate=52115.1kbits/s speed=34.8x    frame= 3212 fps=1049 q=-1.0 size=  684211kB time=00:01:47.10 bitrate=52331.3kbits/s speed=  35x    frame= 3735 fps=1047 q=-1.0 size=  794774kB time=00:02:04.62 bitrate=52243.3kbits/s speed=34.9x    frame= 4260 fps=1041 q=-1.0 size=  906259kB time=00:02:22.14 bitrate=52230.0kbits/s speed=34.7x    frame= 4785 fps=988 q=-1.0 size= 1018100kB time=00:02:39.65 bitrate=52237.9kbits/s speed=  33x    frame= 5220 fps=977 q=-1.0 size= 1111140kB time=00:02:54.17 bitrate=52260.7kbits/s speed=32.6x    frame= 5745 fps=983 q=-1.0 size= 1221847kB time=00:03:11.69 bitrate=52216.0kbits/s speed=32.8x    frame= 6270 fps=988 q=-1.0 size= 1333696kB time=00:03:29.20 bitrate=52223.5kbits/s speed=  33x    frame= 6825 fps=997 q=-1.0 size= 1451144kB time=00:03:47.66 bitrate=52217.0kbits/s speed=33.2x    frame= 7335 fps=996 q=-1.0 size= 1561718kB time=00:04:04.74 bitrate=52273.3kbits/s speed=33.2x    frame= 7920 fps=1007 q=-1.0 size= 1685702kB time=00:04:24.26 bitrate=52255.6kbits/s speed=33.6x    frame= 8440 fps=1009 q=-1.0 size= 1796266kB time=00:04:41.54 bitrate=52264.6kbits/s speed=33.7x    frame= 8925 fps=1006 q=-1.0 size= 1900719kB time=00:04:57.79 bitrate=52286.2kbits/s speed=33.6x    frame= 9450 fps=1008 q=-1.0 size= 2011162kB time=00:05:15.31 bitrate=52250.7kbits/s speed=33.6x    frame= 9960 fps=1009 q=-1.0 size= 2121850kB time=00:05:32.33 bitrate=52303.7kbits/s speed=33.7x    frame=10515 fps=1014 q=-1.0 size= 2239943kB time=00:05:50.85 bitrate=52300.4kbits/s speed=33.8x    frame=11025 fps=1013 q=-1.0 size= 2348107kB time=00:06:07.86 bitrate=52289.7kbits/s speed=33.8x    frame=11610 fps=1020 q=-1.0 size= 2471823kB time=00:06:27.38 bitrate=52271.2kbits/s speed=  34x    frame=12120 fps=1020 q=-1.0 size= 2581962kB time=00:06:44.40 bitrate=52302.7kbits/s speed=  34x    frame=12675 fps=1023 q=-1.0 size= 2700113kB time=00:07:02.92 bitrate=52301.1kbits/s speed=34.1x    frame=13200 fps=1024 q=-1.0 size= 2811188kB time=00:07:20.44 bitrate=52286.9kbits/s speed=34.2x    frame=13755 fps=1027 q=-1.0 size= 2929425kB time=00:07:38.95 bitrate=52287.6kbits/s speed=34.3x    frame=14265 fps=1027 q=-1.0 size= 3037436kB time=00:07:55.97 bitrate=52277.2kbits/s speed=34.3x    frame=14762 fps=1026 q=-1.0 size= 3144802kB time=00:08:12.49 bitrate=52309.9kbits/s speed=34.2x    frame=15329 fps=1029 q=-1.0 size= 3263039kB time=00:08:31.41 bitrate=52268.7kbits/s speed=34.3x    frame=15872 fps=1031 q=-1.0 size= 3381285kB time=00:08:49.52 bitrate=52309.6kbits/s speed=34.4x    frame=16395 fps=1031 q=-1.0 size= 3491847kB time=00:09:07.04 bitrate=52290.3kbits/s speed=34.4x    frame=16920 fps=1032 q=-1.0 size= 3602563kB time=00:09:24.56 bitrate=52274.3kbits/s speed=34.4x    frame=17400 fps=1030 q=-1.0 size= 3704038kB time=00:09:40.51 bitrate=52270.0kbits/s speed=34.4x    frame=17910 fps=1029 q=-1.0 size= 3815503kB time=00:09:57.59 bitrate=52303.8kbits/s speed=34.3x    frame=18437 fps=1030 q=-1.0 size= 3927710kB time=00:10:15.11 bitrate=52308.6kbits/s speed=34.4x    frame=18992 fps=1032 q=-1.0 size= 4045952kB time=00:10:33.63 bitrate=52308.5kbits/s speed=34.4x    frame=19547 fps=1034 q=-1.0 size= 4164191kB time=00:10:52.15 bitrate=52308.4kbits/s speed=34.5x    frame=20070 fps=1034 q=-1.0 size= 4275523kB time=00:11:09.66 bitrate=52302.0kbits/s speed=34.5x    frame=20595 fps=1035 q=-1.0 size= 4386882kB time=00:11:27.18 bitrate=52296.3kbits/s speed=34.5x    frame=21150 fps=1036 q=-1.0 size= 4505114kB time=00:11:45.70 bitrate=52296.4kbits/s speed=34.6x    frame=21675 fps=1037 q=-1.0 size= 4616323kB time=00:12:03.22 bitrate=52289.4kbits/s speed=34.6x    frame=22200 fps=1037 q=-1.0 size= 4726892kB time=00:12:20.74 bitrate=52275.6kbits/s speed=34.6x    frame=22742 fps=1038 q=-1.0 size= 4844841kB time=00:12:38.75 bitrate=52307.7kbits/s speed=34.6x    frame=23303 fps=1040 q=-1.0 size= 4963075kB time=00:12:57.47 bitrate=52294.1kbits/s speed=34.7x    frame=23820 fps=1040 q=-1.0 size= 5073931kB time=00:13:14.79 bitrate=52297.3kbits/s speed=34.7x    frame=24345 fps=1040 q=-1.0 size= 5186305kB time=00:13:32.31 bitrate=52302.8kbits/s speed=34.7x    frame=24900 fps=1041 q=-1.0 size= 5304492kB time=00:13:50.83 bitrate=52302.4kbits/s speed=34.7x    frame=25425 fps=1041 q=-1.0 size= 5416287kB time=00:14:08.34 bitrate=52301.9kbits/s speed=34.7x    frame=25950 fps=1041 q=-1.0 size= 5526785kB time=00:14:25.86 bitrate=52289.2kbits/s speed=34.7x    frame=26505 fps=1042 q=-1.0 size= 5645659kB time=00:14:44.38 bitrate=52295.4kbits/s speed=34.8x    frame=27015 fps=1041 q=-1.0 size= 5755079kB time=00:15:01.40 bitrate=52302.6kbits/s speed=34.7x    frame=27525 fps=1040 q=-1.0 size= 5862318kB time=00:15:18.41 bitrate=52290.0kbits/s speed=34.7x    frame=27620 fps=1024 q=-1.0 size= 5883398kB time=00:15:21.52 bitrate=52301.3kbits/s speed=34.2x    frame=27823 fps=1012 q=-1.0 size= 5924948kB time=00:15:28.29 bitrate=52286.4kbits/s speed=33.8x    frame=27995 fps=1000 q=-1.0 size= 5963299kB time=00:15:34.03 bitrate=52301.5kbits/s speed=33.3x    frame=28241 fps=990 q=-1.0 size= 6014425kB time=00:15:42.24 bitrate=52290.3kbits/s speed=  33x    frame=28399 fps=977 q=-1.0 size= 6049576kB time=00:15:47.51 bitrate=52303.3kbits/s speed=32.6x    frame=28585 fps=966 q=-1.0 size= 6087914kB time=00:15:53.72 bitrate=52292.3kbits/s speed=32.2x    frame=28770 fps=956 q=-1.0 size= 6126927kB time=00:15:59.95 bitrate=52285.3kbits/s speed=31.9x    frame=28922 fps=946 q=-1.0 size= 6161425kB time=00:16:04.96 bitrate=52307.0kbits/s speed=31.6x    frame=29063 fps=934 q=-1.0 size= 6190182kB time=00:16:09.66 bitrate=52296.1kbits/s speed=31.2x    frame=29279 fps=925 q=-1.0 size= 6234917kB time=00:16:16.87 bitrate=52285.4kbits/s speed=30.9x    frame=29433 fps=915 q=-1.0 size= 6270071kB time=00:16:22.01 bitrate=52305.1kbits/s speed=30.5x    frame=29822 fps=913 q=-1.0 size= 6353154kB time=00:16:34.99 bitrate=52306.8kbits/s speed=30.5x    frame=30390 fps=917 q=-1.0 size= 6472179kB time=00:16:54.01 bitrate=52287.4kbits/s speed=30.6x    frame=30900 fps=918 q=-1.0 size= 6582728kB time=00:17:11.03 bitrate=52302.7kbits/s speed=30.6x    frame=31425 fps=920 q=-1.0 size= 6693179kB time=00:17:28.54 bitrate=52291.9kbits/s speed=30.7x    frame=31875 fps=908 q=-1.0 size= 6789307kB time=00:17:43.56 bitrate=52294.0kbits/s speed=30.3x    frame=32025 fps=899 q=-1.0 size= 6821910kB time=00:17:48.56 bitrate=52299.0kbits/s speed=  30x    frame=32552 fps=900 q=-1.0 size= 6934740kB time=00:18:06.08 bitrate=52306.5kbits/s speed=  30x    frame=33135 fps=904 q=-1.0 size= 7058237kB time=00:18:25.60 bitrate=52298.1kbits/s speed=30.2x    frame=33647 fps=906 q=-1.0 size= 7168014kB time=00:18:42.62 bitrate=52306.4kbits/s speed=30.2x    frame=34215 fps=909 q=-1.0 size= 7287043kB time=00:19:01.64 bitrate=52289.2kbits/s speed=30.3x    frame=34538 fps=903 q=-1.0 size= 7356567kB time=00:19:12.35 bitrate=52297.4kbits/s speed=30.1x    frame=34769 fps=897 q=-1.0 size= 7404492kB time=00:19:20.06 bitrate=52288.3kbits/s speed=29.9x    frame=35012 fps=889 q=-1.0 size= 7458834kB time=00:19:28.16 bitrate=52306.5kbits/s speed=29.7x    frame=35138 fps=881 q=-1.0 size= 7484391kB time=00:19:32.37 bitrate=52297.5kbits/s speed=29.4x    frame=35345 fps=874 q=-1.0 size= 7529127kB time=00:19:39.27 bitrate=52301.9kbits/s speed=29.2x    frame=35565 fps=868 q=-1.0 size= 7574657kB time=00:19:46.68 bitrate=52289.8kbits/s speed=  29x    frame=35734 fps=862 q=-1.0 size= 7612211kB time=00:19:52.25 bitrate=52303.4kbits/s speed=28.7x    frame=35820 fps=853 q=-1.0 size= 7628185kB time=00:19:55.12 bitrate=52287.3kbits/s speed=28.5x    frame=36051 fps=848 q=-1.0 size= 7679319kB time=00:20:02.83 bitrate=52300.5kbits/s speed=28.3x    frame=36210 fps=842 q=-1.0 size= 7711272kB time=00:20:08.14 bitrate=52287.5kbits/s speed=28.1x    frame=36416 fps=837 q=-1.0 size= 7756012kB time=00:20:15.01 bitrate=52293.4kbits/s speed=27.9x    frame=36623 fps=832 q=-1.0 size= 7800753kB time=00:20:21.92 bitrate=52297.8kbits/s speed=27.8x    frame=36844 fps=828 q=-1.0 size= 7848685kB time=00:20:29.29 bitrate=52303.5kbits/s speed=27.6x    frame=36962 fps=821 q=-1.0 size= 7874250kB time=00:20:33.23 bitrate=52306.3kbits/s speed=27.4x    frame=37190 fps=817 q=-1.0 size= 7922193kB time=00:20:40.84 bitrate=52302.1kbits/s speed=27.2x    frame=37334 fps=811 q=-1.0 size= 7950948kB time=00:20:45.64 bitrate=52289.5kbits/s speed=  27x    frame=37545 fps=806 q=-1.0 size= 7995683kB time=00:20:52.68 bitrate=52288.1kbits/s speed=26.9x    frame=37680 fps=800 q=-1.0 size= 8024445kB time=00:20:57.19 bitrate=52288.2kbits/s speed=26.7x    frame=37882 fps=795 q=-1.0 size= 8069177kB time=00:21:03.93 bitrate=52299.3kbits/s speed=26.5x    frame=38100 fps=791 q=-1.0 size= 8114201kB time=00:21:11.27 bitrate=52287.5kbits/s speed=26.4x    frame=38280 fps=787 q=-1.0 size= 8152265kB time=00:21:17.21 bitrate=52288.4kbits/s speed=26.2x    frame=38444 fps=782 q=-1.0 size= 8187414kB time=00:21:22.68 bitrate=52289.9kbits/s speed=26.1x    frame=38675 fps=778 q=-1.0 size= 8238544kB time=00:21:30.39 bitrate=52302.1kbits/s speed=  26x    frame=38848 fps=774 q=-1.0 size= 8273701kB time=00:21:36.16 bitrate=52291.4kbits/s speed=25.8x    frame=39107 fps=771 q=-1.0 size= 8331219kB time=00:21:44.80 bitrate=52306.2kbits/s speed=25.7x    frame=39237 fps=765 q=-1.0 size= 8356780kB time=00:21:49.14 bitrate=52292.8kbits/s speed=25.5x    frame=39467 fps=762 q=-1.0 size= 8407902kB time=00:21:56.81 bitrate=52306.1kbits/s speed=25.4x    frame=39598 fps=757 q=-1.0 size= 8433477kB time=00:22:01.18 bitrate=52291.6kbits/s speed=25.3x    frame=39828 fps=754 q=-1.0 size= 8484605kB time=00:22:08.86 bitrate=52304.8kbits/s speed=25.1x    frame=39973 fps=749 q=-1.0 size= 8513368kB time=00:22:13.70 bitrate=52291.7kbits/s speed=  25x    frame=40174 fps=745 q=-1.0 size= 8558105kB time=00:22:20.40 bitrate=52303.5kbits/s speed=24.9x    frame=40289 fps=740 q=-1.0 size= 8580485kB time=00:22:24.24 bitrate=52290.6kbits/s speed=24.7x    frame=40433 fps=736 q=-1.0 size= 8612424kB time=00:22:29.04 bitrate=52298.3kbits/s speed=24.5x    frame=40592 fps=731 q=-1.0 size= 8647580kB time=00:22:34.35 bitrate=52306.1kbits/s speed=24.4x    frame=40736 fps=727 q=-1.0 size= 8676334kB time=00:22:39.15 bitrate=52294.5kbits/s speed=24.2x    frame=40952 fps=724 q=-1.0 size= 8724271kB time=00:22:46.36 bitrate=52306.0kbits/s speed=24.1x    frame=41126 fps=720 q=-1.0 size= 8759422kB time=00:22:52.17 bitrate=52294.6kbits/s speed=  24x    frame=41298 fps=717 q=-1.0 size= 8797773kB time=00:22:57.91 bitrate=52304.8kbits/s speed=23.9x    frame=41400 fps=712 q=-1.0 size= 8818498kB time=00:23:01.38 bitrate=52296.3kbits/s speed=23.8x    frame=41602 fps=710 q=-1.0 size= 8861674kB time=00:23:08.05 bitrate=52299.7kbits/s speed=23.7x    frame=41760 fps=706 q=-1.0 size= 8893635kB time=00:23:13.32 bitrate=52289.7kbits/s speed=23.6x    frame=41948 fps=703 q=-1.0 size= 8935184kB time=00:23:19.59 bitrate=52298.5kbits/s speed=23.5x    frame=42120 fps=700 q=-1.0 size= 8970338kB time=00:23:25.33 bitrate=52289.9kbits/s speed=23.4x    frame=42350 fps=698 q=-1.0 size= 9021460kB time=00:23:33.01 bitrate=52302.3kbits/s speed=23.3x    frame=42519 fps=695 q=-1.0 size= 9056613kB time=00:23:38.65 bitrate=52297.4kbits/s speed=23.2x    frame=42639 fps=691 q=-1.0 size= 9082178kB time=00:23:42.65 bitrate=52297.4kbits/s speed=23.1x    frame=42825 fps=688 q=-1.0 size= 9120649kB time=00:23:48.86 bitrate=52290.8kbits/s speed=  23x    frame=42986 fps=685 q=-1.0 size= 9155671kB time=00:23:54.23 bitrate=52295.0kbits/s speed=22.9x    frame=43163 fps=683 q=-1.0 size= 9194016kB time=00:24:00.14 bitrate=52298.6kbits/s speed=22.8x    frame=43288 fps=679 q=-1.0 size= 9219580kB time=00:24:04.31 bitrate=52292.6kbits/s speed=22.7x    frame=43467 fps=676 q=-1.0 size= 9257943kB time=00:24:10.28 bitrate=52294.0kbits/s speed=22.6x    frame=43590 fps=673 q=-1.0 size= 9283774kB time=00:24:14.45 bitrate=52289.5kbits/s speed=22.5x    frame=43634 fps=668 q=-1.0 size= 9293077kB time=00:24:15.85 bitrate=52291.5kbits/s speed=22.3x    frame=43835 fps=666 q=-1.0 size= 9337827kB time=00:24:22.56 bitrate=52302.4kbits/s speed=22.2x    frame=43994 fps=663 q=-1.0 size= 9369786kB time=00:24:27.86 bitrate=52291.7kbits/s speed=22.1x    frame=44153 fps=660 q=-1.0 size= 9404922kB time=00:24:33.17 bitrate=52298.8kbits/s speed=  22x    frame=44250 fps=657 q=-1.0 size= 9426025kB time=00:24:36.47 bitrate=52298.8kbits/s speed=21.9x    frame=44470 fps=655 q=-1.0 size= 9472028kB time=00:24:43.75 bitrate=52296.4kbits/s speed=21.9x    frame=44628 fps=653 q=-1.0 size= 9507191kB time=00:24:49.02 bitrate=52304.7kbits/s speed=21.8x    frame=44820 fps=651 q=-1.0 size= 9545540kB time=00:24:55.42 bitrate=52290.7kbits/s speed=21.7x    frame=44975 fps=648 q=-1.0 size= 9580681kB time=00:25:00.60 bitrate=52302.3kbits/s speed=21.6x    frame=45075 fps=644 q=-1.0 size= 9599855kB time=00:25:03.93 bitrate=52290.7kbits/s speed=21.5x    frame=45300 fps=643 q=-1.0 size= 9647797kB time=00:25:11.50 bitrate=52288.9kbits/s speed=21.4x    frame=45450 fps=640 q=-1.0 size= 9679750kB time=00:25:16.44 bitrate=52290.9kbits/s speed=21.4x    frame=45623 fps=638 q=-1.0 size= 9718104kB time=00:25:22.22 bitrate=52299.0kbits/s speed=21.3x    frame=45825 fps=635 q=-1.0 size= 9759644kB time=00:25:28.96 bitrate=52291.0kbits/s speed=21.2x    frame=46055 fps=634 q=-1.0 size= 9810769kB time=00:25:36.63 bitrate=52302.4kbits/s speed=21.1x    frame=46185 fps=631 q=-1.0 size= 9836331kB time=00:25:40.97 bitrate=52291.1kbits/s speed=21.1x    frame=46368 fps=629 q=-1.0 size= 9877876kB time=00:25:47.08 bitrate=52304.7kbits/s speed=  21x    frame=46577 fps=628 q=-1.0 size= 9922619kB time=00:25:54.05 bitrate=52305.8kbits/s speed=20.9x    frame=46790 fps=626 q=-1.0 size= 9967354kB time=00:26:01.16 bitrate=52302.5kbits/s speed=20.9x    frame=46905 fps=624 q=-1.0 size= 9989721kB time=00:26:05.05 bitrate=52289.4kbits/s speed=20.8x    frame=47137 fps=621 q=-1.0 size=10040845kB time=00:26:12.73 bitrate=52300.2kbits/s speed=20.7x    frame=47640 fps=624 q=-1.0 size=10148997kB time=00:26:29.58 bitrate=52303.2kbits/s speed=20.8x    frame=48150 fps=627 q=-1.0 size=10255737kB time=00:26:46.60 bitrate=52293.5kbits/s speed=20.9x    frame=48675 fps=629 q=-1.0 size=10366795kB time=00:27:04.05 bitrate=52291.7kbits/s speed=  21x    frame=49170 fps=632 q=-1.0 size=10474453kB time=00:27:20.64 bitrate=52300.8kbits/s speed=21.1x    frame=49755 fps=635 q=-1.0 size=10597660kB time=00:27:40.15 bitrate=52293.8kbits/s speed=21.2x    frame=50265 fps=637 q=-1.0 size=10708217kB time=00:27:57.17 bitrate=52303.2kbits/s speed=21.3x    frame=50790 fps=640 q=-1.0 size=10819575kB time=00:28:14.69 bitrate=52300.9kbits/s speed=21.4x    frame=51315 fps=643 q=-1.0 size=10931140kB time=00:28:32.21 bitrate=52299.6kbits/s speed=21.4x    frame=51751 fps=643 q=-1.0 size=11025084kB time=00:28:46.72 bitrate=52305.6kbits/s speed=21.5x    frame=51960 fps=641 q=-1.0 size=11066631kB time=00:28:53.72 bitrate=52290.8kbits/s speed=21.4x    frame=52134 fps=639 q=-1.0 size=11104973kB time=00:28:59.47 bitrate=52298.6kbits/s speed=21.3x    frame=52307 fps=637 q=-1.0 size=11143313kB time=00:29:05.24 bitrate=52305.6kbits/s speed=21.3x    frame=52481 fps=635 q=-1.0 size=11178467kB time=00:29:11.05 bitrate=52296.6kbits/s speed=21.2x    frame=52710 fps=634 q=-1.0 size=11226417kB time=00:29:18.69 bitrate=52292.7kbits/s speed=21.2x    frame=52855 fps=632 q=-1.0 size=11258370kB time=00:29:23.53 bitrate=52297.7kbits/s speed=21.1x    frame=53051 fps=631 q=-1.0 size=11300058kB time=00:29:30.07 bitrate=52297.4kbits/s speed=  21x    frame=53239 fps=629 q=-1.0 size=11341442kB time=00:29:36.34 bitrate=52303.6kbits/s speed=  21x    frame=53345 fps=627 q=-1.0 size=11363802kB time=00:29:39.87 bitrate=52302.6kbits/s speed=20.9x    frame=53533 fps=624 q=-1.0 size=11402158kB time=00:29:46.15 bitrate=52294.8kbits/s speed=20.8x    frame=53725 fps=623 q=-1.0 size=11443709kB time=00:29:52.55 bitrate=52297.8kbits/s speed=20.8x    frame=53907 fps=621 q=-1.0 size=11482048kB time=00:29:58.63 bitrate=52295.8kbits/s speed=20.7x    frame=54080 fps=619 q=-1.0 size=11520399kB time=00:30:04.40 bitrate=52302.6kbits/s speed=20.7x    frame=54282 fps=618 q=-1.0 size=11561938kB time=00:30:11.14 bitrate=52295.9kbits/s speed=20.6x    frame=54440 fps=616 q=-1.0 size=11597086kB time=00:30:16.41 bitrate=52302.6kbits/s speed=20.6x    frame=54618 fps=614 q=-1.0 size=11635443kB time=00:30:22.35 bitrate=52304.6kbits/s speed=20.5x    frame=54786 fps=612 q=-1.0 size=11670589kB time=00:30:27.96 bitrate=52301.7kbits/s speed=20.4x    frame=55003 fps=611 q=-1.0 size=11715332kB time=00:30:35.20 bitrate=52295.1kbits/s speed=20.4x    frame=55161 fps=609 q=-1.0 size=11750489kB time=00:30:40.47 bitrate=52301.7kbits/s speed=20.3x    frame=55364 fps=608 q=-1.0 size=11792040kB time=00:30:47.24 bitrate=52294.2kbits/s speed=20.3x    frame=55522 fps=606 q=-1.0 size=11827173kB time=00:30:52.51 bitrate=52300.8kbits/s speed=20.2x    frame=55665 fps=604 q=-1.0 size=11855942kB time=00:30:57.29 bitrate=52293.3kbits/s speed=20.2x    frame=55781 fps=602 q=-1.0 size=11881498kB time=00:31:01.16 bitrate=52297.0kbits/s speed=20.1x    frame=55901 fps=600 q=-1.0 size=11907063kB time=00:31:05.16 bitrate=52297.1kbits/s speed=  20x    frame=56103 fps=599 q=-1.0 size=11951801kB time=00:31:11.90 bitrate=52304.5kbits/s speed=  20x    frame=56257 fps=597 q=-1.0 size=11983753kB time=00:31:17.04 bitrate=52300.8kbits/s speed=19.9x    frame=56400 fps=595 q=-1.0 size=12012657kB time=00:31:21.88 bitrate=52292.2kbits/s speed=19.9x    frame=56459 fps=592 q=-1.0 size=12025301kB time=00:31:23.78 bitrate=52294.4kbits/s speed=19.8x    frame=56675 fps=591 q=-1.0 size=12073234kB time=00:31:30.99 bitrate=52302.7kbits/s speed=19.7x    frame=56849 fps=590 q=-1.0 size=12108387kB time=00:31:36.79 bitrate=52294.4kbits/s speed=19.7x    frame=57050 fps=589 q=-1.0 size=12153122kB time=00:31:43.50 bitrate=52302.7kbits/s speed=19.6x    frame=57223 fps=587 q=-1.0 size=12188288kB time=00:31:49.27 bitrate=52295.5kbits/s speed=19.6x    frame=57425 fps=586 q=-1.0 size=12233011kB time=00:31:56.01 bitrate=52302.7kbits/s speed=19.6x    frame=57569 fps=585 q=-1.0 size=12261779kB time=00:32:00.82 bitrate=52294.6kbits/s speed=19.5x    frame=57780 fps=583 q=-1.0 size=12308710kB time=00:32:07.92 bitrate=52301.2kbits/s speed=19.5x    frame=58001 fps=583 q=-1.0 size=12354497kB time=00:32:15.23 bitrate=52297.5kbits/s speed=19.4x    frame=58188 fps=581 q=-1.0 size=12395992kB time=00:32:21.47 bitrate=52304.5kbits/s speed=19.4x    frame=58333 fps=579 q=-1.0 size=12424746kB time=00:32:26.31 bitrate=52295.6kbits/s speed=19.3x    frame=58530 fps=578 q=-1.0 Lsize=12471790kB time=00:32:32.95 bitrate=52315.1kbits/s speed=19.3x    
video:11919868kB audio:549267kB subtitle:0kB other streams:0kB global headers:0kB muxing overhead: 0.021290%
2016-10-27 19:57:09
The script crashed due to an internal error
[Errno 2] No such file or directory: 'concat.txt'
2016-10-27 19:57:09
[Errno 2] No such file or directory: 'concat.txt'
